<?xml version="1.0" encoding="utf-8"?>
<!-- Generator: Adobe Illustrator 25.1.0, SVG Export Plug-In . SVG Version: 6.00 Build 0)  -->
<svg version="1.1" xmlns="http://www.w3.org/2000/svg" xmlns:xlink="http://www.w3.org/1999/xlink" x="0px" y="0px"
	 viewBox="0 0 175 50" style="enable-background:new 0 0 175 50;" xml:space="preserve">
<style type="text/css">
	.st0{fill:none;stroke:#000000;}
	.st1{fill:#FFFFFF;stroke:#000000;}
	.st2{fill:#A7CF92;stroke:#000000;stroke-width:0.25;}
	.st3{fill:#8BC26E;stroke:#000000;stroke-width:0.25;}
	.st4{fill:#88C273;stroke:#000000;stroke-width:0.25;}
	.st5{fill:#F09999;stroke:#000000;stroke-width:0.25;}
	.st6{fill:#E25251;stroke:#000000;stroke-width:0.25;}
	.st7{fill:#FFFFFF;stroke:#000000;stroke-width:0.25;}
</style>
<g id="Capa_1">
	<path class="st0" d="M69,60.2"/>
	<g>
		<path class="st1" d="M10.24,10.16h17.01v5.77h-5.61v25H15.7v-25h-5.46V10.16z"/>
		<path class="st1" d="M29.3,18.17h4.9v2.87c0.53-1.13,1.23-1.99,2.11-2.57c0.88-0.59,1.84-0.88,2.89-0.88
			c0.74,0,1.51,0.2,2.32,0.59l-1.78,4.92c-0.67-0.33-1.22-0.5-1.65-0.5c-0.88,0-1.62,0.54-2.23,1.63c-0.61,1.09-0.91,3.22-0.91,6.4
			l0.02,1.11v9.2H29.3V18.17z"/>
		<path class="st1" d="M61.14,18.17h5.71v22.76h-5.71v-2.41c-1.11,1.06-2.23,1.82-3.35,2.29c-1.12,0.47-2.34,0.7-3.65,0.7
			c-2.94,0-5.48-1.14-7.63-3.42s-3.22-5.12-3.22-8.5c0-3.51,1.04-6.39,3.11-8.64c2.08-2.25,4.6-3.37,7.56-3.37
			c1.36,0,2.65,0.26,3.84,0.77c1.2,0.52,2.31,1.29,3.32,2.32V18.17z M55.13,22.86c-1.77,0-3.23,0.62-4.4,1.87
			c-1.17,1.25-1.75,2.85-1.75,4.8c0,1.97,0.59,3.58,1.78,4.85c1.19,1.27,2.65,1.9,4.39,1.9c1.79,0,3.28-0.62,4.46-1.87
			c1.18-1.25,1.77-2.88,1.77-4.91c0-1.98-0.59-3.58-1.77-4.81S56.94,22.86,55.13,22.86z"/>
		<path class="st1" d="M94.9,22.77l-4.75,2.61c-0.89-0.93-1.78-1.58-2.65-1.95c-0.87-0.36-1.9-0.54-3.07-0.54
			c-2.14,0-3.87,0.64-5.19,1.91c-1.32,1.27-1.98,2.91-1.98,4.9c0,1.94,0.63,3.52,1.91,4.74c1.27,1.22,2.94,1.84,5.01,1.84
			c2.55,0,4.55-0.87,5.97-2.62l4.5,3.08c-2.44,3.17-5.89,4.76-10.33,4.76c-4,0-7.14-1.19-9.4-3.56c-2.27-2.37-3.4-5.15-3.4-8.33
			c0-2.2,0.55-4.23,1.65-6.09c1.1-1.85,2.64-3.31,4.61-4.37c1.97-1.06,4.18-1.59,6.62-1.59c2.26,0,4.29,0.45,6.09,1.35
			C92.29,19.83,93.76,21.11,94.9,22.77z"/>
		<path class="st1" d="M100.09,9.38h5.71v18.17l8.41-9.38h7.17l-9.8,10.91l10.98,11.85h-7.09l-9.67-10.49v10.49h-5.71V9.38z"/>
		<path class="st1" d="M128.02,34.97c0.91,0,1.68,0.32,2.32,0.95s0.96,1.41,0.96,2.31s-0.32,1.68-0.96,2.32
			c-0.64,0.64-1.42,0.96-2.32,0.96s-1.68-0.32-2.32-0.96c-0.64-0.64-0.96-1.42-0.96-2.32s0.32-1.68,0.96-2.31
			S127.11,34.97,128.02,34.97z"/>
		<path class="st1" d="M163.09,8.8c1,0,1.86,0.36,2.58,1.09c0.72,0.73,1.08,1.6,1.08,2.64c0,1.02-0.36,1.89-1.06,2.6
			s-1.56,1.08-2.54,1.08c-1.01,0-1.88-0.37-2.6-1.1c-0.72-0.73-1.07-1.62-1.07-2.67c0-1,0.35-1.86,1.06-2.57
			C161.23,9.15,162.09,8.8,163.09,8.8z M160.24,18.17h5.71v22.76h-5.71V18.17z"/>
	</g>
	<path class="st0" d="M69.89,57.66"/>
</g>
<g id="Capa_2">
	<path class="st2" d="M146.83,17.21l-0.56,4.73c0,0,4.06,1.27,4.8,4.27l5.33-0.04C156.39,26.17,154.8,18.55,146.83,17.21z"/>
	<path class="st3" d="M136.64,20.63l3.07,3.7l0.78-0.53c0,0,1.94-1.94,5.61-1.66l0.49-2.29l0.25-2.43
		C146.83,17.42,140.98,16.15,136.64,20.63z"/>
	<path class="st4" d="M134.06,24.05l2.33-3.35l3.32,3.63l0.04,0.35c0,0-2.72,2.19-0.14,9.03l-3.53,3.14c0,0-3.7-3.92-2.93-8.82
		L134.06,24.05z"/>
	<path class="st5" d="M147.01,35.73l0.95,4.8c0,0-7.44,1.76-12.06-3.74l3.74-3.46C139.64,33.33,140.94,36.33,147.01,35.73z"/>
	<path class="st6" d="M150.5,33.72l4.59,2.22c0,0-2.58,4.23-6.74,4.62l-0.56-0.81l-0.78-4.02C147.01,35.73,149.37,34.6,150.5,33.72z
		"/>
	<path class="st7" d="M139.01,26.34l17.58-0.03c0,0,0.57,4.27,0.32,4.51s-18.25-0.1-18.25-0.1S137.76,28.08,139.01,26.34z"/>
	<g>
		<path class="st0" d="M156.76,30.67h-18.13c0.26,1.6,0.96,2.87,2.1,3.81c1.14,0.94,2.59,1.42,4.35,1.42c2.11,0,3.92-0.74,5.44-2.21
			l4.75,2.23c-1.19,1.68-2.6,2.92-4.26,3.73c-1.65,0.81-3.62,1.21-5.89,1.21c-3.53,0-6.4-1.11-8.62-3.34
			c-2.22-2.23-3.33-5.01-3.33-8.36c0-3.43,1.11-6.28,3.32-8.55s4.98-3.4,8.32-3.4c3.54,0,6.42,1.13,8.64,3.4
			c1.54,1.58,2.55,3.51,3.02,5.79c0.21,1,0.31,2.06,0.31,3.19L156.76,30.67z M151.12,26.22c-0.37-1.25-1.11-2.27-2.21-3.06
			c-1.1-0.79-2.37-1.18-3.82-1.18c-1.57,0-2.95,0.44-4.14,1.32c-0.75,0.55-1.44,1.52-2.07,2.91H151.12z"/>
	</g>
	<line class="st0" x1="151.12" y1="26.22" x2="156.52" y2="26.2"/>
	<line class="st0" x1="146.3" y1="21.92" x2="146.89" y2="17.42"/>
	<line class="st0" x1="139.95" y1="24.4" x2="136.5" y2="20.61"/>
	<path class="st1" d="M138.88,26.22c0,0-0.98,1.39-0.25,4.44"/>
	<line class="st0" x1="146.94" y1="35.78" x2="148" y2="40.49"/>
	<line class="st0" x1="135.88" y1="36.84" x2="139.69" y2="33.5"/>
</g>
</svg>
