<?xml version="1.0" encoding="utf-8"?>
<!-- Generator: Adobe Illustrator 25.1.0, SVG Export Plug-In . SVG Version: 6.00 Build 0)  -->
<svg version="1.1" id="Capa_1" xmlns="http://www.w3.org/2000/svg" xmlns:xlink="http://www.w3.org/1999/xlink" x="0px" y="0px"
	 viewBox="0 0 700 500" style="enable-background:new 0 0 700 500;" xml:space="preserve">
<style type="text/css">
	.st0{fill:#E87374;stroke:#000000;stroke-width:3;stroke-miterlimit:10;}
	.st1{fill:#EE9797;stroke:#000000;stroke-width:3;stroke-miterlimit:10;}
	.st2{fill:none;stroke:#000000;stroke-width:3;stroke-miterlimit:10;}
	.st3{fill:#DF3E3E;stroke:#000000;stroke-width:3;stroke-miterlimit:10;}
	.st4{fill:#E15151;stroke:#000000;stroke-width:3;stroke-miterlimit:10;}
	.st5{fill:#F4B9B9;stroke:#000000;stroke-width:3;stroke-miterlimit:10;}
	.st6{fill:#F7CBCB;stroke:#000000;stroke-width:3;stroke-miterlimit:10;}
	.st7{fill:#89C271;stroke:#000000;stroke-width:3;stroke-miterlimit:10;}
	.st8{fill:#8AC26E;stroke:#000000;stroke-width:3;stroke-miterlimit:10;}
	.st9{fill:#89C055;stroke:#000000;stroke-width:3;stroke-miterlimit:10;}
	.st10{fill:#9DC973;stroke:#000000;stroke-width:3;stroke-miterlimit:10;}
	.st11{fill:#A6CF92;stroke:#000000;stroke-width:3;stroke-miterlimit:10;}
	.st12{fill:#C1DDB4;stroke:#000000;stroke-width:3;stroke-miterlimit:10;}
	.st13{fill:#D0E5C8;stroke:#000000;stroke-width:3;stroke-miterlimit:10;}
	.st14{fill:#E84243;stroke:#000000;stroke-width:3;stroke-miterlimit:10;}
	.st15{fill:none;stroke:#7B1711;stroke-width:3;stroke-miterlimit:10;}
	.st16{fill:none;stroke:#1B2A19;stroke-width:3;stroke-miterlimit:10;}
	.st17{fill:none;stroke:#3B1010;stroke-width:3;stroke-miterlimit:10;}
	.st18{fill:none;stroke:#0E1811;stroke-width:3;stroke-miterlimit:10;}
	.st19{fill:none;stroke:#3F1011;stroke-width:3;stroke-miterlimit:10;}
	.st20{fill:none;stroke:#3E1011;stroke-width:3;stroke-miterlimit:10;}
	.st21{fill:none;stroke:#1F351B;stroke-width:3;stroke-miterlimit:10;}
	.st22{fill:none;stroke:#4D0F10;stroke-width:3;stroke-miterlimit:10;}
	.st23{fill:none;stroke:#192718;stroke-width:3;stroke-miterlimit:10;}
</style>
<path class="st0" d="M133.26,109.92c-8.38,13.98-21.92,24.49-37.98,28.92L77.6,76.77l0.2-0.69l0.05,0.09v-0.26l0.11-0.37
	L133.26,109.92z"/>
<path class="st1" d="M95.27,138.84c-5.45,1.51-11.18,2.31-17.12,2.31c-18.7,0-35.55-7.99-47.28-20.76l46.49-44.43l0.24,0.82
	L95.27,138.84z"/>
<polygon class="st2" points="77.81,76.08 77.6,76.77 77.36,75.96 77.58,75.75 "/>
<path class="st3" d="M142.36,76.94c0,2.23-0.11,4.44-0.33,6.61L78.8,74.58l-0.51-0.08l0.15-0.52l0.03-0.05l0.82-2.68l17.1-55.9
	c7.11,2.11,13.7,5.4,19.55,9.67c2.32,1.69,4.52,3.52,6.59,5.5c4.81,4.61,8.92,9.97,12.12,15.88
	C139.56,55.48,142.36,65.88,142.36,76.94z"/>
<path class="st4" d="M142.03,83.55c-0.98,9.58-4.06,18.51-8.77,26.37L77.97,75.55l0.08-0.24l0.75-0.73L142.03,83.55z"/>
<path class="st5" d="M77.36,75.96l-46.49,44.43c-6.33-6.87-11.17-15.13-14.03-24.27c-1.89-6.06-2.91-12.5-2.91-19.18
	c0-2.96,0.2-5.87,0.59-8.73c1.71-12.59,7.07-24,14.96-33.17l46.67,39.16h0.01l0.89,0.75l0.03,0.03v0.01L77.09,75v0.01L77.36,75.96z"
	/>
<path class="st6" d="M96.38,15.35l-17.1,55.9l-0.82,2.68l-0.03,0.05l-0.15,0.52l-1.47-0.2L50.94,18.77c8.17-3.84,17.3-6,26.91-6.04
	h0.29C84.48,12.73,90.6,13.65,96.38,15.35z"/>
<path class="st3" d="M76.82,74.3l-0.23-0.04l-0.43-0.06h-0.01L29.48,35.04c5.9-6.83,13.2-12.41,21.46-16.27L76.82,74.3z"/>
<polygon class="st2" points="78.8,74.58 78.05,75.3 77.97,75.55 77.86,75.92 77.86,76.17 77.81,76.08 77.58,75.75 77.36,75.96 
	77.09,75.01 77.09,75 77.08,74.99 77.08,74.97 77.05,74.95 76.16,74.19 76.59,74.26 76.82,74.3 78.29,74.5 "/>
<line class="st2" x1="77.86" y1="76.91" x2="77.86" y2="76.17"/>
<line class="st2" x1="50.94" y1="18.77" x2="50.04" y2="16.83"/>
<polyline class="st2" points="76.82,74.3 76.99,74.63 76.99,74.65 77.17,75.04 77.18,75.05 77.32,75.36 77.49,75.71 "/>
<line class="st2" x1="29.48" y1="35.04" x2="27.85" y2="33.67"/>
<polyline class="st2" points="77.08,74.97 77.09,74.99 77.14,75.02 77.17,75.04 77.18,75.05 77.62,75.42 "/>
<line class="st2" x1="30.87" y1="120.39" x2="30.52" y2="120.73"/>
<line class="st2" x1="79.08" y1="74.31" x2="78.8" y2="74.58"/>
<polyline class="st2" points="78.05,75.3 77.86,75.47 77.86,75.48 77.58,75.75 "/>
<polyline class="st2" points="76.33,73.85 76.59,74.26 76.73,74.46 76.76,74.51 76.89,74.7 77.05,74.95 "/>
<polyline class="st2" points="77.09,75.01 77.32,75.36 77.58,75.75 "/>
<line class="st2" x1="133.45" y1="110.05" x2="133.26" y2="109.92"/>
<polyline class="st2" points="77.97,75.55 77.86,75.47 77.18,75.05 77.17,75.04 77.08,74.99 76.73,74.78 76.57,74.67 76.48,74.61 
	"/>
<line class="st2" x1="142.04" y1="83.55" x2="142.03" y2="83.55"/>
<line class="st2" x1="76.15" y1="74.19" x2="75.87" y2="74.16"/>
<line class="st2" x1="78.29" y1="74.5" x2="78.05" y2="75.3"/>
<line class="st2" x1="96.43" y1="15.17" x2="96.38" y2="15.35"/>
<line class="st2" x1="77.6" y1="76.77" x2="76.77" y2="79.47"/>
<line class="st2" x1="77.86" y1="75.92" x2="77.81" y2="76.08"/>
<polyline class="st2" points="76.94,74.46 76.99,74.63 76.99,74.65 77.08,74.97 "/>
<polyline class="st2" points="77.08,74.99 77.09,74.99 77.09,75 "/>
<line class="st2" x1="140.18" y1="190.51" x2="139.92" y2="189.58"/>
<path class="st7" d="M402.39,135.82l0.23,1.03L369.97,157c-4.41-6.83-6.4-14.74-5.98-22.56l38.14,1.29l-0.04,0.24l-0.02,0.05
	l0.11-0.1L402.39,135.82z"/>
<path class="st8" d="M402.61,136.85l8.09,36.51c-12.55,2.99-26.28-0.49-35.95-10.38c-1.82-1.86-3.42-3.87-4.77-5.98L402.61,136.85z"
	/>
<path class="st9" d="M439.41,130.98c0.25,1.68,0.38,3.36,0.39,5.05c0.04,3.94-0.52,7.89-1.7,11.68l-35.2-12.48l0.12-0.13l0.37-0.37
	l25.48-24.91l0.12,0.12c2.61,2.68,4.75,5.64,6.42,8.79C437.46,122.61,438.79,126.75,439.41,130.98z"/>
<path class="st10" d="M428.87,109.82l-25.48,24.91l-0.37,0.37l-0.12,0.13l-0.01,0l-0.6-0.22l-0.09-0.03l0.05,0.23l-0.05,0.26
	l-0.07,0.27l-38.14-1.29c0.28-5.51,1.77-10.97,4.45-15.95c1.78-3.3,4.07-6.4,6.89-9.15c1.25-1.23,2.57-2.34,3.93-3.36
	c6.03-4.48,13.06-6.93,20.19-7.38c5.32-0.33,10.69,0.45,15.74,2.35C420.19,102.81,424.88,105.78,428.87,109.82z"/>
<path class="st11" d="M438.1,147.71c-1.79,5.84-5.04,11.31-9.7,15.88c-0.94,0.92-1.93,1.78-2.94,2.59
	c-4.45,3.53-9.49,5.93-14.76,7.18l-8.09-36.51l-0.23-1.03l-0.02-0.08l0.44-0.43l0.09-0.08l0.01,0L438.1,147.71z"/>
<polygon class="st2" points="402.89,135.23 402.8,135.31 402.36,135.74 402.39,135.82 402.18,135.92 402.07,136.02 402.08,135.97 
	402.13,135.73 402.19,135.47 402.25,135.21 402.2,134.98 402.29,135.01 "/>
<line class="st2" x1="402.36" y1="135.74" x2="402.18" y2="135.92"/>
<line class="st2" x1="429.2" y1="109.5" x2="428.87" y2="109.82"/>
<line class="st2" x1="401.76" y1="136.33" x2="402.07" y2="136.03"/>
<line class="st2" x1="363.99" y1="134.44" x2="363.69" y2="134.44"/>
<polyline class="st2" points="402.13,135.73 402.36,135.74 402.37,135.74 402.52,135.75 403.13,135.77 403.36,135.77 "/>
<polyline class="st2" points="402.42,134.42 402.35,134.7 402.33,134.84 402.32,134.88 402.29,135.01 402.26,135.18 402.25,135.21 
	"/>
<line class="st2" x1="410.72" y1="173.5" x2="410.7" y2="173.36"/>
<polyline class="st2" points="402.16,134.8 402.17,134.86 402.19,134.97 402.2,134.98 "/>
<polyline class="st2" points="402.25,135.21 402.27,135.27 402.26,135.28 402.36,135.74 "/>
<line class="st2" x1="438.49" y1="147.85" x2="438.1" y2="147.71"/>
<polyline class="st2" points="401.87,134.86 402.19,134.97 402.2,134.98 "/>
<polyline class="st2" points="402.18,135.92 402.09,135.97 400.23,136.93 "/>
<line class="st2" x1="404.02" y1="135.98" x2="402.61" y2="136.85"/>
<line class="st2" x1="369.97" y1="157" x2="369.71" y2="157.16"/>
<path class="st7" d="M400.5,408.07l-0.09,1.71l-59.54,17.56c-3.98-12.54-3.71-25.74,0.27-37.76l58.62,18.14l0.37,0.11l-0.17,0.35
	l-0.05,0.07l0.22-0.11L400.5,408.07z"/>
<path class="st10" d="M400.41,409.78l-2.92,60.44c-20.86-0.67-40.83-11.95-51.71-31.5c-2.05-3.69-3.69-7.49-4.91-11.38
	L400.41,409.78z"/>
<path class="st8" d="M460.36,416.27c-0.33,2.72-0.84,5.41-1.54,8.06c-1.61,6.16-4.17,12.1-7.63,17.5l-49.64-34.47l0.24-0.15
	l0.73-0.41l50.38-28.05l0.13,0.24c2.94,5.3,5.02,10.83,6.29,16.45C460.88,402.37,461.2,409.4,460.36,416.27z"/>
<path class="st11" d="M452.91,378.75l-50.38,28.05l-0.73,0.41l-0.24,0.15h-0.01l-0.79-0.56l34.74-47.6h0.01
	C442.44,364.22,448.44,370.81,452.91,378.75z"/>
<path class="st12" d="M435.48,359.2l-34.74,47.6l-0.05-0.04l-0.13-0.09l-0.01,0.38v0.01l-0.02,0.04l-0.17,0.33l-0.22,0.39
	l-0.37-0.11l1.73-60.21c3.45,0.11,6.9,0.52,10.28,1.22c8.45,1.75,16.5,5.25,23.57,10.36C435.39,359.13,435.43,359.15,435.48,359.2z"
	/>
<path class="st13" d="M401.5,347.51l-1.73,60.21l-58.62-18.14c2.78-8.48,7.43-16.37,13.74-23.01c4.19-4.39,9.08-8.25,14.66-11.35
	c2.48-1.38,5-2.56,7.57-3.56C385.06,348.54,393.35,347.21,401.5,347.51z"/>
<path class="st9" d="M451.19,441.83c-5.29,8.35-12.68,15.51-21.91,20.66c-1.87,1.04-3.77,1.97-5.69,2.8
	c-8.45,3.62-17.34,5.21-26.1,4.93l2.92-60.44l0.09-1.71v-0.13l0.87-0.49l0.17-0.09h0.01L451.19,441.83z"/>
<polygon class="st2" points="401.54,407.36 401.37,407.45 400.5,407.94 400.5,408.07 400.13,408.14 399.91,408.25 399.96,408.18 
	400.13,407.83 400.35,407.43 400.52,407.11 400.55,407.07 400.55,407.06 400.56,406.68 400.69,406.76 400.74,406.8 "/>
<line class="st2" x1="400.5" y1="407.94" x2="400.13" y2="408.14"/>
<line class="st2" x1="453.56" y1="378.4" x2="452.91" y2="378.75"/>
<line class="st2" x1="399.3" y1="408.6" x2="399.92" y2="408.26"/>
<line class="st2" x1="341.14" y1="389.58" x2="340.68" y2="389.44"/>
<polyline class="st2" points="400.14,407.83 400.49,407.94 400.5,407.93 400.73,408.01 401.69,408.31 402.04,408.42 "/>
<polyline class="st2" points="401.15,405.9 400.93,406.31 400.83,406.52 400.79,406.57 400.69,406.76 400.57,407.02 400.55,407.06 
	"/>
<line class="st2" x1="397.48" y1="470.44" x2="397.5" y2="470.22"/>
<polyline class="st2" points="400.57,406.39 400.57,406.48 400.56,406.67 400.56,406.68 "/>
<polyline class="st2" points="400.55,407.07 400.55,407.15 400.54,407.17 400.5,407.94 "/>
<line class="st2" x1="451.75" y1="442.22" x2="451.19" y2="441.83"/>
<polyline class="st2" points="400.56,406.68 400.56,406.67 400.1,406.35 "/>
<polyline class="st2" points="400.13,408.14 399.97,408.17 396.66,408.88 "/>
<line class="st2" x1="402.98" y1="409.02" x2="400.41" y2="409.78"/>
<line class="st2" x1="340.88" y1="427.34" x2="340.41" y2="427.48"/>
<line class="st2" x1="590.83" y1="290.2" x2="590.83" y2="289.83"/>
<polyline class="st2" points="590.83,289.6 590.83,289.8 590.83,289.81 "/>
<polyline class="st2" points="590.83,232.44 590.83,233.14 590.83,233.32 "/>
<line class="st2" x1="566.03" y1="238.64" x2="565.74" y2="238.03"/>
<line class="st2" x1="590.51" y1="290.03" x2="590.37" y2="289.72"/>
<polyline class="st2" points="590.36,289.69 590.24,289.45 590.23,289.44 590.22,289.43 589.63,288.21 "/>
<polyline class="st2" points="591.01,289.66 591.65,289.04 591.9,288.81 "/>
<line class="st2" x1="589.55" y1="288.47" x2="589.5" y2="288.41"/>
<polyline class="st2" points="589.63,289.07 589.71,289.12 589.86,289.22 590.16,289.39 "/>
<polyline class="st2" points="590.17,289.4 590.22,289.43 590.23,289.44 590.24,289.45 590.83,289.81 590.93,289.88 "/>
<polyline class="st2" points="589.3,289.14 589.38,288.93 589.55,288.47 "/>
<polyline class="st2" points="607.95,236.36 608.21,235.59 608.27,235.43 "/>
<path class="st8" d="M590.83,233.32v51.5l-0.18,0.5l-0.84,2.38l-0.02,0.04l-0.16,0.45l-23.6-49.56c7.2-3.42,15.24-5.33,23.74-5.33
	C590.12,233.31,590.48,233.31,590.83,233.32z"/>
<path class="st7" d="M607.95,236.36l-17.11,48.46v-51.5C596.81,233.43,602.57,234.49,607.95,236.36z"/>
<path class="st10" d="M645.13,288.67c0,5.76-0.88,11.3-2.51,16.51l-51.62-15.53l-0.18-0.06v-4.79l17.11-48.46
	C629.6,243.89,645.13,264.46,645.13,288.67z"/>
<path class="st9" d="M642.63,305.19c-7.03,22.52-28.04,38.85-52.86,38.85c-30.58,0-55.37-24.79-55.37-55.37
	c0-22.08,12.93-41.15,31.63-50.03l23.6,49.56v0.01l-0.09,0.27l0.19,0.29l0.12,0.18l0.02,0.04l0.11,0.17l0.14,0.21l0.02,0.03
	l0.01,0.01l0.19,0.29l0.01,0.02l0.22,0.34l0.24-0.23v-0.01l0.17-0.14l0.01-0.01L642.63,305.19z"/>
<polygon class="st2" points="591.01,289.66 591,289.67 590.83,289.81 590.83,289.83 590.59,290.06 590.37,289.72 590.36,289.69 
	590.17,289.4 590.16,289.39 590.13,289.36 589.99,289.15 589.88,288.98 589.86,288.94 589.73,288.76 589.55,288.47 589.63,288.21 
	589.63,288.2 589.79,287.74 589.81,287.7 590.65,285.31 590.83,284.81 590.83,289.6 "/>
<line class="st2" x1="643.7" y1="305.51" x2="642.63" y2="305.19"/>
<polyline class="st2" points="590.83,289.6 590.22,289.43 590.17,289.4 589.6,289.24 "/>
<line class="st2" x1="548.81" y1="125.07" x2="548.42" y2="125.54"/>
<line class="st2" x1="516" y1="164.97" x2="515.83" y2="165.18"/>
<polyline class="st2" points="516.02,164.94 516.2,164.74 516.2,164.73 516.21,164.72 "/>
<polyline class="st2" points="516.31,165.44 517.07,165.73 517.35,165.85 "/>
<polyline class="st2" points="516.2,164.67 516.21,164.65 516.23,164.62 516.34,164.42 516.44,164.26 516.46,164.23 516.56,164.06 
	516.73,163.78 516.74,163.78 "/>
<polyline class="st2" points="516.11,165.47 516.12,165.36 516.2,164.74 516.2,164.73 516.21,164.65 516.24,164.34 516.26,164.18 
	516.27,164.1 "/>
<polyline class="st2" points="516.74,163.78 516.73,163.78 516.7,163.79 516.29,163.83 516.09,163.85 "/>
<polyline class="st2" points="566.31,158.89 567.04,158.82 567.19,158.8 "/>
<path class="st3" d="M537.82,209.26c-4.7,2.2-9.56,3.61-14.44,4.27l-7.07-48.09l-0.1-0.72l0.79-0.96l0.41-0.04h0.05l2.27-0.23
	l46.58-4.6C568.45,179.45,557.59,200,537.82,209.26z"/>
<path class="st4" d="M566.31,158.89l-46.58,4.6l-2.27,0.23h-0.05l-0.41,0.04l31.42-38.22c5.55,4.56,10.18,10.4,13.43,17.34
	C564.29,148.08,565.75,153.48,566.31,158.89z"/>
<path class="st0" d="M548.42,125.54L517,163.76h-0.03l-0.23,0.02l0.02-0.04l0.71-0.66l-0.94,0.23l-33.3-36.35
	c3.57-3.22,7.67-5.97,12.24-8.11C513.5,110.4,534.01,113.66,548.42,125.54z"/>
<path class="st1" d="M516.53,163.31l-48.58,11.73c-4.01-17.65,1.96-36.11,15.28-48.08L516.53,163.31z"/>
<path class="st5" d="M517.47,163.08l-0.71,0.66l-0.06,0.05l-0.44,0.41l-0.12,0.11l-36.26,33.52c-3.36-3.65-6.22-7.87-8.44-12.6
	c-1.56-3.33-2.72-6.75-3.49-10.19l48.58-11.73L517.47,163.08z"/>
<path class="st6" d="M523.38,213.53c-16.15,2.21-32.49-3.69-43.5-15.7l36.26-33.52l0.06,0.36l-0.18,0.27l-0.02,0.03l-0.17,0.29
	l0.28,0.11l0.01-0.01l0.18,0.08h0.01L523.38,213.53z"/>
<polygon class="st2" points="516.21,164.72 516.31,165.44 516.3,165.44 516.12,165.36 516.11,165.37 515.83,165.26 516,164.97 
	516.02,164.94 516.2,164.67 516.14,164.31 516.26,164.2 516.7,163.79 516.76,163.74 516.74,163.78 516.97,163.76 517,163.76 "/>
<line class="st2" x1="523.53" y1="214.53" x2="523.38" y2="213.53"/>
<line class="st2" x1="516.14" y1="164.31" x2="516.12" y2="164.14"/>
<polyline class="st2" points="516.2,164.67 516.2,164.71 516.21,164.72 "/>
<line class="st2" x1="479.88" y1="197.83" x2="479.56" y2="198.12"/>
<polyline class="st2" points="517.47,163.08 517.48,163.08 517.6,162.96 "/>
<line class="st2" x1="517.48" y1="163.08" x2="517.47" y2="163.08"/>
<line class="st2" x1="467.95" y1="175.04" x2="467.8" y2="175.08"/>
<line class="st2" x1="516.76" y1="163.56" x2="516.53" y2="163.31"/>
<line class="st2" x1="483.23" y1="126.96" x2="482.68" y2="126.36"/>
<path class="st2" d="M216.31,198.13"/>
<path class="st2" d="M162.4,209.08"/>
<polyline class="st2" points="162.61,209.62 163.05,210.36 163.21,210.64 "/>
<polyline class="st2" points="163.06,208.9 163.1,208.87 163.32,208.79 163.5,208.73 163.55,208.72 163.75,208.65 164.13,208.51 "/>
<polyline class="st2" points="163.06,208.9 163.29,208.65 163.42,208.55 163.48,208.48 "/>
<polyline class="st2" points="163.01,208.95 162.98,208.96 162.52,209.43 162.43,209.5 "/>
<path class="st9" d="M213.53,190.64l-49.12,17.46l-0.19-0.1l-0.05-0.89l34.41-38.28C205.34,174.73,210.48,182.26,213.53,190.64z"/>
<path class="st10" d="M198.58,168.84l-34.41,38.28l-0.06-1.12v-0.01l19.01-46.52C188.89,161.71,194.09,164.91,198.58,168.84z"/>
<path class="st7" d="M183.11,159.46l-19.01,46.52l-2.98-50.11c5.07-0.25,10.29,0.22,15.48,1.52
	C178.84,157.94,181.02,158.63,183.11,159.46z"/>
<path class="st8" d="M215.14,221.49c-7.07,28.34-35.78,45.59-64.12,38.52c-5.33-1.32-10.27-3.42-14.72-6.13l26.31-44.27v-0.01
	l0.39-0.66l0.02-0.02l0.03-0.03l-0.02,0.01l0.24-0.4l0.95-0.34l0.18-0.06l49.12-17.46C217.02,200.21,217.78,210.88,215.14,221.49z"
	/>
<path class="st11" d="M164.23,208.16l-0.95,0.34l-0.24,0.4l-0.33,0.11l-0.36,0.13l0.16,0.28l0.01,0.01l0.1,0.18v0.01l-26.31,44.27
	c-19.25-11.71-29.55-34.96-23.81-57.98c0.94-3.78,2.27-7.36,3.93-10.71l47.2,22.52l0.59,0.29L164.23,208.16z"/>
<polygon class="st2" points="163.04,208.91 163.06,208.9 163.03,208.93 163.01,208.95 162.61,209.61 162.52,209.43 162.51,209.41 
	162.35,209.14 162.71,209.01 "/>
<path class="st12" d="M164.17,207.12l-0.54,0.6l-47.2-22.52c8.5-17.18,25.75-28.36,44.7-29.33l2.98,50.11v0.01L164.17,207.12z"/>
<polygon class="st2" points="164.22,208.01 163.63,207.72 164.17,207.12 "/>
<polygon class="st2" points="164.41,208.1 164.23,208.16 164.22,208.01 "/>
<line class="st2" x1="136.31" y1="253.88" x2="135.75" y2="254.8"/>
<line class="st2" x1="163.04" y1="208.91" x2="163.03" y2="208.93"/>
<line class="st2" x1="163.33" y1="208.41" x2="163.28" y2="208.5"/>
<line class="st2" x1="165.16" y1="208.45" x2="164.41" y2="208.1"/>
<line class="st2" x1="116.43" y1="185.19" x2="116.29" y2="185.13"/>
<line class="st2" x1="164.24" y1="208.37" x2="164.23" y2="208.16"/>
<line class="st2" x1="161.13" y1="155.87" x2="161.08" y2="155.01"/>
<line class="st2" x1="183.52" y1="158.47" x2="183.11" y2="159.46"/>
<line class="st2" x1="164.11" y1="205.99" x2="163.49" y2="207.49"/>
<line class="st2" x1="163.63" y1="207.72" x2="163.49" y2="207.87"/>
<line class="st2" x1="199.16" y1="168.2" x2="198.58" y2="168.84"/>
<line class="st2" x1="163.28" y1="208.5" x2="162.92" y2="208.63"/>
<line class="st2" x1="214.41" y1="190.32" x2="213.53" y2="190.64"/>
<path class="st2" d="M844.27,185.43"/>
<path class="st2" d="M274.46,348.69"/>
<polyline class="st2" points="274.33,347.31 274.36,347.56 274.46,348.23 "/>
<line class="st2" x1="273.94" y1="348.63" x2="273.93" y2="348.63"/>
<polyline class="st2" points="273.03,348.59 273.35,348.61 273.52,348.61 "/>
<polyline class="st2" points="273.96,348.61 273.98,348.6 273.99,348.6 274.48,348.4 "/>
<polyline class="st2" points="273.93,348.63 273.88,348.64 273.68,348.74 273.56,348.78 273.52,348.8 273.5,348.81 "/>
<line class="st2" x1="274.56" y1="348.37" x2="274.48" y2="348.4"/>
<path class="st6" d="M313.61,338.28l-37.86,10.7l-1.49-0.12l-0.36-0.2l0.04-0.03l0.27,0.02l0.31,0.02l-0.03-0.26h-0.01l-0.02-0.17
	v-0.01l32.06-24.73C309.89,327.96,312.27,333,313.61,338.28z"/>
<path class="st5" d="M314.76,352.02l-39.01-3.04l37.86-10.7C314.75,342.75,315.15,347.4,314.76,352.02z"/>
<path class="st1" d="M314.76,352.02c-0.49,5.87-2.23,11.7-5.3,17.08l-34.58-19.88l0.87-0.24L314.76,352.02z"/>
<path class="st0" d="M309.47,369.1c-0.71,1.25-1.49,2.47-2.35,3.67c-1.78,2.49-3.79,4.72-5.97,6.69l-27.94-30.11l0.22-0.51
	l0.23,0.01l0.04-0.03l0.57,0.04l0.62,0.36L309.47,369.1z"/>
<path class="st4" d="M301.14,379.46c-11.95,10.79-29.2,13.69-44.01,7.41l16.07-37.51L301.14,379.46z"/>
<path class="st3" d="M273.2,349.35l-16.07,37.51c-2.78-1.17-5.48-2.67-8.04-4.51c-11.67-8.36-17.73-21.66-17.34-35.01l40.96,1.47
	L273.2,349.35z"/>
<path class="st14" d="M306.52,323.5l-32.06,24.73l-0.5,0.38l-0.03,0.02h-0.22l-0.15-0.01l-0.03-0.01l-0.07,0.18l-0.02,0.05
	l-0.71-0.03l-40.96-1.47c0.22-8.01,2.74-16.03,7.76-23.02c13.38-18.68,39.36-22.97,58.03-9.59
	C301.04,317.26,304.05,320.23,306.52,323.5z"/>
<polygon class="st2" points="272.71,348.82 273.42,348.84 273.2,349.35 "/>
<polygon class="st2" points="273.9,348.66 274.26,348.86 273.69,348.82 273.65,348.85 273.42,348.84 273.44,348.79 273.52,348.61 
	273.55,348.62 273.7,348.63 273.93,348.63 273.96,348.61 274.46,348.23 274.46,348.24 274.48,348.4 274.48,348.4 274.52,348.66 
	274.21,348.64 273.94,348.63 "/>
<polygon class="st2" points="274.88,349.22 274.26,348.86 275.75,348.98 "/>
<line class="st2" x1="307.19" y1="322.99" x2="306.52" y2="323.5"/>
<line class="st2" x1="273.96" y1="348.61" x2="273.94" y2="348.63"/>
<line class="st2" x1="273.65" y1="348.85" x2="273.58" y2="348.9"/>
<line class="st2" x1="273.9" y1="348.66" x2="273.69" y2="348.82"/>
<line class="st2" x1="272.71" y1="348.82" x2="272.27" y2="348.34"/>
<line class="st2" x1="301.23" y1="379.55" x2="301.14" y2="379.46"/>
<line class="st2" x1="273.95" y1="348.86" x2="273.65" y2="348.85"/>
<line class="st2" x1="844.11" y1="192.98" x2="843.22" y2="192.95"/>
<line class="st2" x1="314.21" y1="338.11" x2="313.61" y2="338.28"/>
<line class="st2" x1="274.88" y1="349.22" x2="274.13" y2="349.44"/>
<polyline class="st2" points="273.69,348.82 273.52,348.8 273.44,348.79 273.39,348.79 "/>
<line class="st2" x1="314.82" y1="352.03" x2="314.76" y2="352.02"/>
<polyline class="st2" points="273.79,348.59 273.85,348.63 273.88,348.64 273.9,348.66 "/>
<line class="st2" x1="310.07" y1="369.45" x2="309.47" y2="369.1"/>
<line class="st2" x1="273.73" y1="348.13" x2="273.52" y2="348.61"/>
<line class="st2" x1="257.13" y1="386.87" x2="256.89" y2="387.43"/>
<path class="st3" d="M581.92,439.62c0,18.32-9.09,34.52-23.01,44.31l-7.42-7.91c11.8-7.74,19.6-21.09,19.6-36.26
	c0-4.8-0.78-9.42-2.22-13.74l9.87-4.76C580.8,427,581.92,433.18,581.92,439.62z"/>
<path class="st4" d="M578.73,421.27l-9.87,4.76c-5.74-17.2-21.99-29.61-41.12-29.61c-10.65,0-20.39,3.84-27.94,10.22l-6.66-8.7
	c9.38-7.8,21.44-12.49,34.6-12.49C551.22,385.44,571.21,400.38,578.73,421.27z"/>
<path class="st0" d="M509.22,478.96l-6.38,8.79c-17.39-9.01-29.28-27.18-29.28-48.13c0-16.77,7.62-31.76,19.58-41.69l6.66,8.7
	c-0.04,0.03-0.09,0.06-0.13,0.1c-9.34,7.95-15.27,19.79-15.27,33.02C484.4,457.07,494.55,472.01,509.22,478.96z"/>
<path class="st5" d="M558.91,483.93c-8.82,6.22-19.57,9.87-31.17,9.87c-8.97,0-17.45-2.18-24.9-6.05l6.38-8.79
	c5.61,2.66,11.9,4.15,18.52,4.15c8.77,0,16.93-2.6,23.75-7.08L558.91,483.93z"/>
<path class="st3" d="M182.93,371.46c-0.67,13.89-4.86,26.87-11.67,38.06l-13.64-8.54c5.18-8.62,8.4-18.54,9.07-29.14L182.93,371.46z
	"/>
<path class="st4" d="M183.04,367.44c0,1.35-0.04,2.69-0.11,4.02l-16.24,0.38c0.1-1.38,0.14-2.79,0.14-4.19
	c0-8.96-1.82-17.5-5.12-25.27l14.96-6.44C180.78,345.62,183.04,356.26,183.04,367.44z"/>
<path class="st0" d="M176.68,335.94l-14.96,6.44c-7.52-17.75-22.74-31.45-41.46-36.93l4.83-15.68
	C148.41,296.68,167.33,313.8,176.68,335.94z"/>
<path class="st5" d="M125.09,289.77l-4.83,15.68c-5.77-1.69-11.89-2.6-18.21-2.6c-35.79,0-64.8,29.01-64.8,64.8
	c0,10,2.26,19.46,6.31,27.92l-14.35,7.36c-5.23-10.71-8.17-22.76-8.17-35.49c0-44.74,36.26-81,81-81
	C110.05,286.44,117.79,287.61,125.09,289.77z"/>
<path class="st6" d="M171.27,409.52c-3.88,6.37-8.61,12.15-14.04,17.19l-11.45-11.25c4.61-4.21,8.61-9.1,11.85-14.48L171.27,409.52z
	"/>
<path class="st4" d="M157.23,426.71c-14.46,13.48-33.86,21.73-55.19,21.73c-3.12,0-6.2-0.18-9.23-0.52l1.86-15.88
	c2.42,0.27,4.88,0.42,7.37,0.42c16.86,0,32.21-6.43,43.74-16.99L157.23,426.71z"/>
<path class="st3" d="M94.67,432.04l-1.86,15.88c-28.04-3.18-51.74-20.67-63.61-44.99l14.35-7.36
	C52.97,415.27,72.05,429.48,94.67,432.04z"/>
<path class="st2" d="M166.84,367.65c0,1.4-0.05,2.81-0.14,4.19c-0.67,10.61-3.89,20.52-9.07,29.14
	c-3.24,5.38-7.24,10.26-11.85,14.48c-11.52,10.56-26.88,16.99-43.74,16.99c-2.49,0-4.95-0.14-7.37-0.42
	c-22.62-2.56-41.7-16.76-51.12-36.46c-4.05-8.45-6.31-17.92-6.31-27.92c0-35.79,29.01-64.8,64.8-64.8c6.32,0,12.44,0.9,18.21,2.6
	c18.73,5.48,33.94,19.18,41.46,36.93C165.02,350.15,166.84,358.69,166.84,367.65z"/>
<path class="st2" d="M166.84,367.65c0,1.4-0.05,2.81-0.14,4.19c-0.67,10.61-3.89,20.52-9.07,29.14
	c-3.24,5.38-7.24,10.26-11.85,14.48c-11.52,10.56-26.88,16.99-43.74,16.99c-2.49,0-4.95-0.14-7.37-0.42
	c-22.62-2.56-41.7-16.76-51.12-36.46c-4.05-8.45-6.31-17.92-6.31-27.92c0-35.79,29.01-64.8,64.8-64.8c6.32,0,12.44,0.9,18.21,2.6
	c18.73,5.48,33.94,19.18,41.46,36.93C165.02,350.15,166.84,358.69,166.84,367.65z"/>
<line class="st2" x1="120.25" y1="305.45" x2="120.04" y2="306.15"/>
<line class="st2" x1="125.33" y1="289.01" x2="125.09" y2="289.77"/>
<line class="st2" x1="161.72" y1="342.38" x2="160.75" y2="342.8"/>
<line class="st2" x1="177.68" y1="335.51" x2="176.68" y2="335.94"/>
<line class="st2" x1="157.62" y1="400.99" x2="156.75" y2="400.44"/>
<line class="st2" x1="172.04" y1="410.01" x2="171.27" y2="409.52"/>
<line class="st2" x1="94.75" y1="431.3" x2="94.67" y2="432.04"/>
<line class="st2" x1="92.81" y1="447.92" x2="92.75" y2="448.44"/>
<line class="st2" x1="44.08" y1="395.3" x2="43.55" y2="395.57"/>
<line class="st2" x1="29.21" y1="402.93" x2="29.04" y2="403.01"/>
<line class="st2" x1="184.04" y1="371.44" x2="182.93" y2="371.46"/>
<line class="st2" x1="166.69" y1="371.84" x2="165.61" y2="371.87"/>
<line class="st2" x1="157.97" y1="427.44" x2="157.23" y2="426.71"/>
<line class="st2" x1="145.78" y1="415.46" x2="145.54" y2="415.23"/>
<path class="st8" d="M265.88,59.34l-6.85,4.41c-1.65-2.49-3.69-4.79-6.09-6.81c-11.25-9.46-27.07-9.89-38.67-2.05l-4.67-6.59
	c14.52-9.97,34.45-9.49,48.58,2.4C261.23,53.27,263.8,56.19,265.88,59.34z"/>
<path class="st11" d="M214.28,54.9c-2.42,1.62-4.65,3.61-6.62,5.96c-3.2,3.79-5.36,8.11-6.52,12.61l-7.79-1.78
	c1.44-5.74,4.16-11.25,8.23-16.08c2.4-2.85,5.11-5.29,8.04-7.29L214.28,54.9z"/>
<path class="st12" d="M208.9,103.64l-5.78,5.43c-9.63-10.16-13.04-24.37-9.77-37.4l7.79,1.78
	C198.42,83.95,201.13,95.45,208.9,103.64z"/>
<path class="st13" d="M270.73,93.35c-1.54,4.98-4.08,9.74-7.65,13.99c-14.29,16.99-39.64,19.17-56.62,4.88
	c-1.18-1-2.3-2.04-3.34-3.14l5.78-5.43c0.83,0.87,1.72,1.71,2.66,2.5c13.59,11.43,33.87,9.68,45.3-3.9
	c2.86-3.41,4.9-7.23,6.13-11.23L270.73,93.35z"/>
<path class="st7" d="M270.73,93.35l-7.74-2.33c1.47-4.8,1.79-9.84,0.99-14.71l7.96-1.59C272.99,80.89,272.6,87.28,270.73,93.35z"/>
<path class="st9" d="M271.93,74.72l-7.96,1.59c-0.73-4.43-2.39-8.72-4.94-12.55l6.85-4.41C268.99,64.05,271.01,69.3,271.93,74.72z"
	/>
<path class="st2" d="M262.99,91.02c-1.23,4-3.27,7.82-6.13,11.23c-11.43,13.58-31.71,15.33-45.3,3.9c-0.94-0.79-1.83-1.63-2.66-2.5
	c-7.77-8.2-10.48-19.69-7.76-30.18c1.16-4.5,3.33-8.82,6.52-12.61c1.97-2.34,4.21-4.34,6.62-5.96c11.6-7.84,27.43-7.41,38.67,2.05
	c2.4,2.02,4.44,4.32,6.09,6.81c2.55,3.83,4.21,8.12,4.94,12.55C264.78,81.18,264.46,86.22,262.99,91.02z"/>
<path class="st2" d="M262.99,91.02c-1.23,4-3.27,7.82-6.13,11.23c-11.43,13.58-31.71,15.33-45.3,3.9c-0.94-0.79-1.83-1.63-2.66-2.5
	c-7.77-8.2-10.48-19.69-7.76-30.18c1.16-4.5,3.33-8.82,6.52-12.61c1.97-2.34,4.21-4.34,6.62-5.96c11.6-7.84,27.43-7.41,38.67,2.05
	c2.4,2.02,4.44,4.32,6.09,6.81c2.55,3.83,4.21,8.12,4.94,12.55C264.78,81.18,264.46,86.22,262.99,91.02z"/>
<line class="st2" x1="259.04" y1="63.76" x2="258.73" y2="63.95"/>
<line class="st2" x1="266.21" y1="59.13" x2="265.88" y2="59.34"/>
<line class="st2" x1="262.99" y1="91.02" x2="262.49" y2="90.86"/>
<line class="st2" x1="271.24" y1="93.5" x2="270.73" y2="93.35"/>
<line class="st2" x1="209.17" y1="103.38" x2="208.9" y2="103.64"/>
<line class="st2" x1="203.12" y1="109.08" x2="202.93" y2="109.26"/>
<line class="st2" x1="201.42" y1="73.53" x2="201.13" y2="73.46"/>
<line class="st2" x1="193.34" y1="71.68" x2="193.25" y2="71.66"/>
<path class="st3" d="M336.33,158.87l-9.44,4.68c-3.42-6.6-8.62-12.38-15.41-16.56c-5-3.07-10.38-4.98-15.84-5.8l1.53-10.55
	c6.8,1.04,13.51,3.43,19.74,7.25C325.49,143.16,332.05,150.5,336.33,158.87z"/>
<path class="st3" d="M341.11,172.58l-10.2,2.52c-0.77-4.01-2.12-7.91-4.02-11.55l9.44-4.68
	C338.55,163.21,340.15,167.82,341.11,172.58z"/>
<path class="st4" d="M334.31,210.78c-1.07,1.74-2.22,3.4-3.46,4.96l-8.21-6.46c0.98-1.25,1.9-2.58,2.76-3.97
	c5.78-9.4,7.45-20.17,5.51-30.21l10.2-2.52C343.66,185.26,341.62,198.89,334.31,210.78z"/>
<path class="st0" d="M330.85,215.74c-11.36,14.54-29.23,21.76-46.86,20.06l0.81-10.52c14.22,1.51,28.66-4.27,37.84-16L330.85,215.74
	z"/>
<path class="st1" d="M284.8,225.28l-0.81,10.52c-7.76-0.76-15.48-3.25-22.57-7.6c-1.57-0.97-3.07-2-4.5-3.1l6.09-8.7
	c1.29,1.02,2.64,1.96,4.07,2.84C272.66,222.66,278.71,224.65,284.8,225.28z"/>
<path class="st5" d="M297.16,130.63l-1.53,10.55c-12.47-1.88-25.32,1.91-34.79,10.48l-7.09-8.07
	C265.58,132.96,281.61,128.26,297.16,130.63z"/>
<path class="st6" d="M253.15,160.92c-9.11,14.83-8,33.06,1.36,46.48l-9.35,5.21c-11.2-16.69-12.37-39.06-1.16-57.31
	c2.74-4.46,6.04-8.37,9.74-11.71l7.09,8.07C257.91,154.3,255.31,157.39,253.15,160.92z"/>
<path class="st6" d="M263.01,216.4l-6.09,8.7c-4.67-3.57-8.61-7.8-11.75-12.49l9.35-5.21C256.84,210.74,259.68,213.79,263.01,216.4z
	"/>
<path class="st2" d="M325.4,205.31c-0.86,1.39-1.78,2.72-2.76,3.97c-9.18,11.73-23.62,17.51-37.84,16
	c-6.09-0.63-12.14-2.62-17.72-6.04c-1.43-0.88-2.79-1.82-4.07-2.84c-3.33-2.61-6.17-5.65-8.5-9c-9.36-13.41-10.47-31.65-1.36-46.48
	c2.17-3.53,4.77-6.62,7.69-9.26c9.47-8.57,22.32-12.36,34.79-10.48c5.46,0.83,10.84,2.73,15.84,5.8c6.79,4.17,12,9.96,15.41,16.56
	c1.9,3.65,3.25,7.54,4.02,11.55C332.85,185.14,331.18,195.9,325.4,205.31z"/>
<path class="st2" d="M325.4,205.31c-0.86,1.39-1.78,2.72-2.76,3.97c-9.18,11.73-23.62,17.51-37.84,16
	c-6.09-0.63-12.14-2.62-17.72-6.04c-1.43-0.88-2.79-1.82-4.07-2.84c-3.33-2.61-6.17-5.65-8.5-9c-9.36-13.41-10.47-31.65-1.36-46.48
	c2.17-3.53,4.77-6.62,7.69-9.26c9.47-8.57,22.32-12.36,34.79-10.48c5.46,0.83,10.84,2.73,15.84,5.8c6.79,4.17,12,9.96,15.41,16.56
	c1.9,3.65,3.25,7.54,4.02,11.55C332.85,185.14,331.18,195.9,325.4,205.31z"/>
<line class="st2" x1="261.15" y1="152.02" x2="260.84" y2="151.66"/>
<line class="st2" x1="253.75" y1="143.59" x2="253.4" y2="143.2"/>
<line class="st2" x1="295.63" y1="141.19" x2="295.53" y2="141.87"/>
<line class="st2" x1="297.27" y1="129.94" x2="297.16" y2="130.63"/>
<line class="st2" x1="326.89" y1="163.55" x2="326.3" y2="163.84"/>
<line class="st2" x1="336.87" y1="158.6" x2="336.33" y2="158.87"/>
<line class="st2" x1="322.64" y1="209.28" x2="322.26" y2="208.97"/>
<line class="st2" x1="331.13" y1="215.96" x2="330.85" y2="215.74"/>
<line class="st2" x1="284.83" y1="224.9" x2="284.8" y2="225.28"/>
<line class="st2" x1="283.99" y1="235.8" x2="283.98" y2="235.92"/>
<line class="st2" x1="341.76" y1="172.41" x2="341.11" y2="172.58"/>
<line class="st2" x1="330.91" y1="175.1" x2="330.7" y2="175.15"/>
<line class="st2" x1="256.92" y1="225.1" x2="256.85" y2="225.2"/>
<line class="st2" x1="263.39" y1="215.85" x2="263.01" y2="216.4"/>
<line class="st2" x1="255.02" y1="207.11" x2="254.51" y2="207.4"/>
<line class="st2" x1="245.16" y1="212.61" x2="244.56" y2="212.95"/>
<path class="st9" d="M689.3,104.82c-1.03,2.41-2.19,4.72-3.46,6.95l-11.65-6.69c1.02-1.78,1.94-3.63,2.77-5.55
	c11.85-27.63-0.94-59.63-28.57-71.49c-6.92-2.97-14.11-4.39-21.2-4.42l-0.02-13.68c8.83,0.05,17.79,1.83,26.42,5.53
	C688.13,30.28,704.11,70.29,689.3,104.82z"/>
<path class="st7" d="M627.19,23.62c-16.19-0.07-31.81,7.14-42.24,19.79l-10.5-8.93c13.05-15.71,32.53-24.65,52.72-24.54
	L627.19,23.62z"/>
<path class="st13" d="M587.3,115.39l-10.9,8.37c-17.35-19.12-23-47.32-12.16-72.59c2.65-6.18,6.11-11.77,10.21-16.69l10.5,8.93
	c-3.22,3.9-5.95,8.32-8.04,13.2C568.1,77.15,572.91,100.1,587.3,115.39z"/>
<path class="st12" d="M599.77,125.23l-6.12,12.2c-6.6-3.66-12.39-8.31-17.25-13.67l10.9-8.37
	C590.88,119.2,595.06,122.53,599.77,125.23z"/>
<path class="st8" d="M685.84,111.77c-16.91,29.67-53.77,42.54-85.89,28.76c-2.18-0.93-4.28-1.97-6.3-3.1l6.12-12.2
	c1.82,1.06,3.73,2.01,5.71,2.86c25.7,11.02,55.19,0.72,68.71-23.01L685.84,111.77z"/>
<path class="st2" d="M676.96,99.53c-0.83,1.92-1.75,3.77-2.77,5.55c-13.52,23.73-43.01,34.03-68.71,23.01
	c-1.98-0.85-3.89-1.8-5.71-2.86c-4.71-2.7-8.89-6.03-12.47-9.84c-14.39-15.29-19.2-38.24-10.39-58.78c2.09-4.88,4.82-9.3,8.04-13.2
	c10.43-12.65,26.05-19.86,42.24-19.79c7.09,0.03,14.28,1.45,21.2,4.42C676.02,39.9,688.81,71.9,676.96,99.53z"/>
<path class="st2" d="M676.96,99.53c-0.83,1.92-1.75,3.77-2.77,5.55c-13.52,23.73-43.01,34.03-68.71,23.01
	c-1.98-0.85-3.89-1.8-5.71-2.86c-4.71-2.7-8.89-6.03-12.47-9.84c-14.39-15.29-19.2-38.24-10.39-58.78c2.09-4.88,4.82-9.3,8.04-13.2
	c10.43-12.65,26.05-19.86,42.24-19.79c7.09,0.03,14.28,1.45,21.2,4.42C676.02,39.9,688.81,71.9,676.96,99.53z"/>
<line class="st2" x1="585.42" y1="43.81" x2="584.95" y2="43.41"/>
<line class="st2" x1="574.45" y1="34.48" x2="573.94" y2="34.05"/>
<line class="st2" x1="627.19" y1="24.51" x2="627.19" y2="23.62"/>
<line class="st2" x1="627.17" y1="9.94" x2="627.17" y2="9.03"/>
<path class="st2" d="M670.36,46.69"/>
<path class="st2" d="M682.81,38.06"/>
<line class="st2" x1="674.19" y1="105.08" x2="673.65" y2="104.77"/>
<line class="st2" x1="686.22" y1="111.99" x2="685.84" y2="111.77"/>
<line class="st2" x1="593.65" y1="137.43" x2="593.58" y2="137.57"/>
<line class="st2" x1="600.15" y1="124.47" x2="599.77" y2="125.23"/>
<line class="st2" x1="587.9" y1="114.93" x2="587.3" y2="115.39"/>
<line class="st2" x1="576.4" y1="123.76" x2="575.69" y2="124.3"/>
<line class="st2" x1="272.45" y1="74.61" x2="271.93" y2="74.72"/>
<line class="st2" x1="263.97" y1="76.31" x2="263.95" y2="76.31"/>
<line class="st2" x1="209.61" y1="48.31" x2="209.52" y2="48.17"/>
<line class="st2" x1="214.33" y1="54.98" x2="214.28" y2="54.9"/>
<path class="st13" d="M426.8,200.86l-3.05,11.88c-4.36-1.06-8.96-1.52-13.67-1.3c-22.09,1.05-40.02,16.75-44.83,37.26l-11.88-2.5
	c5.86-25.86,28.37-45.7,56.13-47.01C415.46,198.92,421.27,199.51,426.8,200.86z"/>
<path class="st13" d="M409.13,308.05l-0.82,11.91c-21.03-1.38-39.32-13.59-49.03-31.31l10.44-5.99
	C377.44,297.02,392.17,306.94,409.13,308.05z"/>
<path class="st11" d="M369.72,282.66l-10.44,5.99c-4.28-7.8-6.9-16.68-7.34-26.18c-0.27-5.6,0.24-11.06,1.42-16.27l11.88,2.5
	c-1,4.28-1.43,8.76-1.22,13.35C364.39,269.51,366.4,276.5,369.72,282.66z"/>
<path class="st8" d="M449.21,211.65l-7.16,9.9c-5.33-4.14-11.56-7.19-18.29-8.82l3.05-11.88
	C435.04,202.89,442.65,206.6,449.21,211.65z"/>
<path class="st8" d="M466.92,233.49l-10.94,5.33c-3.26-6.8-8.07-12.69-13.94-17.26l7.16-9.9
	C456.68,217.41,462.79,224.86,466.92,233.49z"/>
<path class="st8" d="M469.9,278.28c-2.52,7.8-6.6,14.92-11.88,20.99l-9.75-7.08c4.59-5.07,8.1-11.09,10.2-17.72L469.9,278.28z"/>
<path class="st10" d="M469.9,278.28l-11.43-3.81c1.71-5.33,2.51-11.06,2.22-16.98c-0.32-6.68-1.97-13-4.71-18.67l10.94-5.33
	c3.39,7.08,5.46,14.93,5.85,23.26C473.13,264.26,472.1,271.52,469.9,278.28z"/>
<path class="st9" d="M458.02,299.26c-5.92,6.82-13.36,12.32-21.82,15.94h-0.01l-4.86-10.91c6.52-2.77,12.29-6.94,16.94-12.11
	L458.02,299.26z"/>
<path class="st7" d="M436.18,315.2c-6.46,2.78-13.52,4.46-20.97,4.82c-2.33,0.11-4.63,0.09-6.9-0.06l0.82-11.91
	c1.81,0.12,3.65,0.14,5.51,0.05c5.91-0.28,11.53-1.61,16.68-3.8L436.18,315.2z"/>
<path class="st2" d="M458.47,274.46c-2.11,6.63-5.62,12.66-10.2,17.72c-4.65,5.16-10.42,9.33-16.94,12.11
	c-5.15,2.2-10.76,3.53-16.68,3.8c-1.86,0.09-3.7,0.07-5.51-0.05c-16.96-1.11-31.69-11.02-39.41-25.39
	c-3.32-6.16-5.33-13.15-5.69-20.6c-0.21-4.6,0.21-9.08,1.22-13.35c4.81-20.52,22.74-36.21,44.83-37.26
	c4.71-0.22,9.31,0.24,13.67,1.3c6.74,1.63,12.96,4.68,18.29,8.82c5.87,4.57,10.68,10.46,13.94,17.26
	c2.74,5.67,4.39,11.98,4.71,18.67C460.98,263.41,460.18,269.13,458.47,274.46z"/>
<path class="st2" d="M458.47,274.46c-2.11,6.63-5.62,12.66-10.2,17.72c-4.65,5.16-10.42,9.33-16.94,12.11
	c-5.15,2.2-10.76,3.53-16.68,3.8c-1.86,0.09-3.7,0.07-5.51-0.05c-16.96-1.11-31.69-11.02-39.41-25.39
	c-3.32-6.16-5.33-13.15-5.69-20.6c-0.21-4.6,0.21-9.08,1.22-13.35c4.81-20.52,22.74-36.21,44.83-37.26
	c4.71-0.22,9.31,0.24,13.67,1.3c6.74,1.63,12.96,4.68,18.29,8.82c5.87,4.57,10.68,10.46,13.94,17.26
	c2.74,5.67,4.39,11.98,4.71,18.67C460.98,263.41,460.18,269.13,458.47,274.46z"/>
<line class="st2" x1="423.75" y1="212.74" x2="423.61" y2="213.26"/>
<line class="st2" x1="426.95" y1="200.29" x2="426.8" y2="200.86"/>
<line class="st2" x1="455.98" y1="238.82" x2="455.28" y2="239.16"/>
<line class="st2" x1="467.64" y1="233.13" x2="466.92" y2="233.49"/>
<line class="st2" x1="409.17" y1="307.5" x2="409.13" y2="308.05"/>
<line class="st2" x1="408.32" y1="319.96" x2="408.29" y2="320.35"/>
<line class="st2" x1="370.1" y1="282.44" x2="369.72" y2="282.66"/>
<line class="st2" x1="359.28" y1="288.65" x2="359.16" y2="288.72"/>
<line class="st2" x1="449.67" y1="211.01" x2="449.21" y2="211.65"/>
<line class="st2" x1="442.04" y1="221.56" x2="442.01" y2="221.59"/>
<line class="st2" x1="353.36" y1="246.21" x2="353.12" y2="246.15"/>
<line class="st2" x1="365.4" y1="248.74" x2="365.25" y2="248.7"/>
<line class="st2" x1="470.5" y1="278.47" x2="469.9" y2="278.28"/>
<line class="st2" x1="458.47" y1="274.46" x2="458.34" y2="274.42"/>
<line class="st2" x1="458.76" y1="299.81" x2="458.02" y2="299.27"/>
<line class="st2" x1="448.26" y1="292.19" x2="447.88" y2="291.91"/>
<line class="st2" x1="436.36" y1="315.59" x2="436.19" y2="315.2"/>
<line class="st2" x1="431.32" y1="304.3" x2="431.03" y2="303.65"/>
<line class="st2" x1="493.14" y1="397.93" x2="492.72" y2="397.38"/>
<line class="st2" x1="500.03" y1="406.94" x2="499.8" y2="406.64"/>
<line class="st2" x1="579.3" y1="420.99" x2="578.73" y2="421.27"/>
<line class="st2" x1="568.86" y1="426.03" x2="568.38" y2="426.26"/>
<line class="st2" x1="559.56" y1="484.63" x2="558.91" y2="483.93"/>
<line class="st2" x1="551.49" y1="476.03" x2="550.77" y2="475.26"/>
<line class="st2" x1="502.84" y1="487.75" x2="502.61" y2="488.07"/>
<line class="st2" x1="509.68" y1="478.32" x2="509.22" y2="478.96"/>
<line class="st2" x1="485.41" y1="444.88" x2="473.94" y2="448.89"/>
<line class="st2" x1="399.77" y1="407.72" x2="399.75" y2="408"/>
<line class="st2" x1="401.51" y1="346.92" x2="401.5" y2="347.51"/>
<line class="st2" x1="400.74" y1="406.8" x2="400.55" y2="407.06"/>
<line class="st2" x1="400.52" y1="407.11" x2="400.19" y2="407.56"/>
<line class="st2" x1="435.79" y1="358.78" x2="435.49" y2="359.2"/>
<polyline class="st15" points="70.9,170.88 61.72,187.26 57.94,177.9 40.48,200.04 41.2,187.44 18.16,215.7 "/>
<path class="st16" d="M487.24,270.96c0.9-0.54,22.5-25.02,22.5-25.02s12.24,9.72,11.16,9.54c-1.08-0.18,16.02-17.64,16.02-17.64"/>
<polyline class="st17" points="473.8,79.68 487.48,62.88 494.44,76.56 518.2,40.08 "/>
<polyline class="st18" points="298.84,35.4 307.1,49.55 311.23,35.99 324.79,71.97 340.12,53.09 360.18,96.15 "/>
<polyline class="st19" points="18.4,438.12 30.88,453.96 42.4,439.08 57.76,474.12 "/>
<polyline class="st20" points="597.16,387.96 608.68,406.68 621.64,387.96 646.12,431.64 652.84,426.36 655.72,433.08 
	666.28,428.28 675.88,442.2 "/>
<path class="st15" d="M63.52,172.68"/>
<path class="st15" d="M65.34,170.81"/>
<polyline class="st15" points="63.21,170.61 74.14,165.52 75.18,175.24 "/>
<path class="st16" d="M530.26,236.04c0.67-0.13,11.7-2.25,11.7-2.25l-1.67,9.86"/>
<path class="st17" d="M510.28,39.53c0.9-0.27,11.61-4.86,11.61-4.86l0.18,11.07"/>
<polyline class="st21" points="211.36,476.04 231.89,450.83 242.34,471.36 278,416.61 "/>
<path class="st21" d="M266.11,415.77c1.35-0.41,17.42-7.29,17.42-7.29l0.27,16.61"/>
<path class="st18" d="M351.9,96.76c1.55,0.39,10.06,6.14,10.06,6.14l2.88-10.73"/>
<polyline class="st22" points="614.92,178.68 620.02,187.43 622.58,179.04 630.96,201.28 640.44,189.62 652.84,216.23 "/>
<path class="st22" d="M647.72,216.61c0.96,0.24,6.22,3.79,6.22,3.79l1.78-6.63"/>
<polyline class="st19" points="51.69,474.36 59.15,479.54 61.4,471.26 "/>
<path class="st20" d="M667.42,444.18c0.72,0.3,12.06,3.78,12.06,3.78l1.44-10.56"/>
<polyline class="st23" points="220.27,244.18 231.67,257.69 239.74,241.26 264.41,273.07 269.13,268.07 272.22,273.07 280.04,268 
	289.33,277.92 "/>
<path class="st23" d="M282.84,280.5c0.61,0.15,10.04,1.57,10.04,1.57l-0.11-8.57"/>
</svg>
